<svg width="320" height="320" viewBox="0 0 320 320" fill="none" xmlns="http://www.w3.org/2000/svg">
  <defs>
    <radialGradient id="glow" cx="0" cy="0" r="1" gradientUnits="userSpaceOnUse" gradientTransform="translate(160 170) rotate(90) scale(108)">
      <stop stop-color="#FFD37D" stop-opacity="0.42"/>
      <stop offset="0.48" stop-color="#FFD37D" stop-opacity="0.14"/>
      <stop offset="1" stop-color="#FFD37D" stop-opacity="0"/>
    </radialGradient>
    <linearGradient id="fur" x1="160" y1="64" x2="160" y2="252" gradientUnits="userSpaceOnUse">
      <stop stop-color="#242424"/>
      <stop offset="1" stop-color="#090909"/>
    </linearGradient>
    <linearGradient id="innerEar" x1="160" y1="72" x2="160" y2="138" gradientUnits="userSpaceOnUse">
      <stop stop-color="#C88B74" stop-opacity="0.72"/>
      <stop offset="1" stop-color="#C88B74" stop-opacity="0.12"/>
    </linearGradient>
    <radialGradient id="eye" cx="0" cy="0" r="1" gradientUnits="userSpaceOnUse" gradientTransform="translate(160 150) rotate(90) scale(34 20)">
      <stop stop-color="#FFF8D8"/>
      <stop offset="0.22" stop-color="#D9D865"/>
      <stop offset="1" stop-color="#9AAE35"/>
    </radialGradient>
  </defs>

  <ellipse cx="160" cy="165" rx="118" ry="104" fill="url(#glow)"/>
  <ellipse cx="160" cy="263" rx="78" ry="16" fill="#130E0B" fill-opacity="0.24"/>

  <path d="M103 116L132 67L160 104L188 67L217 116V213C217 231.778 201.778 247 183 247H137C118.222 247 103 231.778 103 213V116Z" fill="url(#fur)"/>
  <path d="M116 112L137 78L155 103L116 136V112Z" fill="url(#innerEar)"/>
  <path d="M204 112L183 78L165 103L204 136V112Z" fill="url(#innerEar)"/>

  <path d="M123 182C123 143.34 154.34 112 193 112H127C165.66 112 197 143.34 197 182V203C197 223.435 180.435 240 160 240C139.565 240 123 223.435 123 203V182Z" fill="#0B0B0B"/>

  <path d="M101 210C101 174.102 130.102 145 166 145V145C201.898 145 231 174.102 231 210V217C231 239.644 212.644 258 190 258H142C119.356 258 101 239.644 101 217V210Z" fill="url(#fur)"/>

  <ellipse cx="137" cy="154" rx="16" ry="22" fill="url(#eye)"/>
  <ellipse cx="183" cy="154" rx="16" ry="22" fill="url(#eye)"/>
  <ellipse cx="137" cy="154" rx="3.2" ry="11" fill="#111111"/>
  <ellipse cx="183" cy="154" rx="3.2" ry="11" fill="#111111"/>
  <circle cx="132" cy="147" r="2.4" fill="#FFFCEB" fill-opacity="0.78"/>
  <circle cx="178" cy="147" r="2.4" fill="#FFFCEB" fill-opacity="0.78"/>

  <path d="M154 183C154 179.686 156.686 177 160 177C163.314 177 166 179.686 166 183V184.2C166 185.746 164.746 187 163.2 187H156.8C155.254 187 154 185.746 154 184.2V183Z" fill="#D19B86" fill-opacity="0.82"/>
  <path d="M149.5 191.5C152.79 195.184 156.993 197 160 197C163.007 197 167.21 195.184 170.5 191.5" stroke="#F1EEE6" stroke-opacity="0.72" stroke-width="3" stroke-linecap="round"/>

  <path d="M216 213C241.862 211.457 259 222.675 259 241.5C259 252.822 252.25 261.5 238.5 261.5C226.957 261.5 220 252.648 220 243C220 233.352 225.628 226 234.5 226" stroke="#090909" stroke-width="16" stroke-linecap="round"/>
</svg>
